<?xml version="1.0" encoding="UTF-8"?>
<svg version="1.1" viewBox="0 0 2048 837" width="1154" height="472" xmlns="http://www.w3.org/2000/svg">
<path transform="translate(67)" d="m0 0h1916l16 5 13 7 12 9 9 10 8 14 5 12 2 8v708l-6 18-9 15-11 12-13 9-16 7-11 3h-1916l-7-2-14-5-13-8-7-6-5-5-8-10-8-16-4-14v-705l7-21 8-13 11-12 10-8 9-5 14-5zm11 64-9 5-4 8-1 8 1 674 3 7 7 6 3 1h1893l9-5 4-7v-685l-6-8-6-4z"/>
<path transform="translate(788,426)" d="m0 0 481 1 9 5 7 6 5 7 3 10 1 4v136l-3 11-6 9-7 6-6 3-7 2h-482l-11-4-8-6-7-12-1-3v-149l7-14 7-6 8-4z"/>
<path transform="translate(499,243)" d="m0 0h1051l8 4 7 7 4 10v34l-4 10-7 7-4 2-7 2h-1043l-11-3-9-8-3-5v-44l5-8 6-5z"/>
</svg>
