<?xml version="1.0" encoding="UTF-8"?>
<svg version="1.1" viewBox="0 0 2048 1154" width="1222" height="689" xmlns="http://www.w3.org/2000/svg">
<path transform="translate(73)" d="m0 0h1882l27 1 12 2 13 5 14 9 12 12 9 15 4 11 2 8v1030l-5 17-7 12-7 9-7 7-6 4-16 8-12 3-1 1h-1926l-7-2-10-4-14-8-9-8-8-10-6-11-4-11-1-5-1-491 1-544 4-14 8-14 9-11 12-9 14-7 10-3zm4 42-9 2-11 6-7 7-6 12-2 9v998l3 13 5 9 8 8 10 5 13 2 28 1h1718l141-1 11-1 10-5 8-6 6-9 3-9 1-545-1-467-7-14-7-7-12-6-9-2z" fill="#020202"/>
<path transform="translate(1078,372)" d="m0 0h695l13 3 8 6 6 7 3 6 2 7v144l-5 12-10 10-8 4-10 2h-696l-12-3-6-4-9-9-5-12v-146l4-10 5-7 10-7zm6 38-3 4v117l3 3h681l3-4v-115l-4-5z" fill="#020202"/>
<path transform="translate(1079,129)" d="m0 0h692l13 3 10 6 4 5 5 10 2 7v145l-5 12-6 8-9 6-6 2h-709l-10-4-9-8-5-8-2-7v-149l5-12 7-8 8-5zm7 38-5 4v120l4 4 4 1h670l6-2 3-4v-118l-4-5z" fill="#010101"/>
<path transform="translate(1084,897)" d="m0 0h384l9 2 6 4 8 8 4 9v87l-6 12-8 7-10 4h-392l-12-6-7-8-4-11v-83l3-10 11-11 6-3z"/>
<path transform="translate(231,363)" d="m0 0h565l10 4 6 7 4 10v8l-4 9-5 6-10 5h-568l-8-4-7-7-3-7v-13l4-8 8-7z" fill="#020202"/>
<path transform="translate(230,489)" d="m0 0h567l10 5 6 7 3 8v8l-4 10-5 5-7 4-15 2h-539l-21-2-8-6-5-8-1-2v-13l4-8 8-7z" fill="#020202"/>
<path transform="translate(227,613)" d="m0 0h572l6 3 8 8 3 8v10l-5 10-7 6-8 3h-566l-6-2-6-4-6-9-1-2v-14l3-6 4-6z"/>
<path transform="translate(1223,648)" d="m0 0h353l9 5 4 5 3 6v10l-5 9-7 5-8 2h-346l-9-3-6-5-3-5-1-4v-8l3-8 7-6z" fill="#030303"/>
<path transform="translate(1232,774)" d="m0 0 350 1 8 5 5 7 1 7-1 10-4 6-6 4-11 2h-348l-10-5-5-8-1-2v-11l4-8 6-5 4-2z" fill="#010101"/>
<path transform="translate(1076,611)" d="m0 0h69l9 4 5 5 4 10v70l-5 10-5 4-6 3h-74l-6-3-8-8-2-8v-69l5-10 6-5zm10 29v48l4 1h41l4-1v-48z" fill="#030303"/>
<path transform="translate(1074,744)" d="m0 0h74l8 5 5 6 2 6v71l-5 10-5 4-8 3h-70l-9-4-5-5-3-8-1-4v-65l4-11 6-5zm49 27-36 1-1 1v46l3 2h45l1-5v-43l-5-2z" fill="#020202"/>
<path transform="translate(32,14)" d="m0 0m-1 1m-1 1m-2 1 2 1-12 12v-3l6-7z" fill="#3A3A3A"/>
</svg>
