<?xml version="1.0" encoding="UTF-8"?>
<svg version="1.1" viewBox="0 0 2048 1164" width="1064" height="605" xmlns="http://www.w3.org/2000/svg">
<path transform="translate(482,150)" d="m0 0h1082l12 5 12 7 9 9 8 14 4 15v642l-2 10-9 17-9 9-14 8-16 4-6 1h-1062l-13-2-16-8-8-6-8-9-6-12-3-8v-649l3-9 7-14 9-10 10-7 10-5zm11 38-10 5-5 6-3 8v602l1 1h5l8-9 7-8 27-27 6-8 27-27 9-11 35-35 4-6 40-40 8-10 35-35 7-9 35-35 7-8 11-12 32-32 9-11 9-9 2-1v-2h2l6-7 2-1v-2h2v-2h2l7-8 15-16 18-18v-2h2l5-7 11-7 5-2 9-2h11l1 1 7 1 10 4 9 7 76 76 10 8 10 10 5 6 8 7 92 92 7 1 39-39 11-9 23-23 9-5 8-2h18l12 5 8 5 27 27 10 8 48 48 10 8 59 59 8 7 10 9 37 37 8 7 10 9 37 37 9 7 29 29 5 3 4-2 1-3v-627l-3-10-6-7-9-4z"/>
<path transform="translate(69)" d="m0 0h1905l2 1 9 1 11 3 13 7 9 7 14 14 8 13 4 10 2 6v9h2v1022h-2v9l-3 7-5 13-7 10-17 17-12 7-13 5-13 2-1 1h-1906v-2h-11l-12-5-11-6-10-9-11-11-8-14-4-10-2-6v-1038l6-16 8-14 18-18 16-9 11-3 1-1h9zm7 50-13 5-7 6-6 9-2 4-2 7v1e3l4 11 6 10 10 7 7 3h1899l12-5 8-7 4-6 4-14v-1e3l-4-13-7-9-7-5-14-4z"/>
<path transform="translate(1310,296)" d="m0 0h12l2 1 9 1 1 1 7 1 16 8 11 7 13 13 9 14 6 13 3 10v35l-6 17-8 14-4 5-7 8-9 7-11 7-16 6-16 3h-14l-16-3-15-6-6-4-11-7-10-10-4-6-5-8-6-13-3-10-2-12v-12l1-2 1-10 7-19 7-12 7-9 10-9 14-9 8-4 5-2 7-1 1-1z"/>
<path transform="translate(1766,365)" d="m0 0h8l11 4 119 119 3 6v21l-6 9-47 47h-2l-2 4-21 21h-2v2h-2v2h-2l-2 4-9 8-4 5h-2v2l-7 6-12 12-6 3-5 1h-14l-10-6-4-4-4-8-1-12 2-8 5-8 89-89-1-6h-2l-7-8-50-50-7-8-5-5v-2h-2v-2h-2v-2h-2l-5-5-8-7-4-7-2-11 1-5 3-9 5-7 12-6z"/>
<path transform="translate(271,365)" d="m0 0h10l9 4 6 4 6 10 2 11-2 10-6 9-8 7-31 31-7 8-9 9-5 4-7 8-11 12-9 9-5 1 7 8 87 87 4 8 1 10-2 10-5 8-6 5-5 2-6 1h-13l-6-3-119-119-3-8v-14l5-10 80-80 9-11 17-17 4-2 4-6 10-5z"/>
<path transform="translate(1011,966)" d="m0 0h24l10 4 9 7 9 9 5 9 2 6v24l-5 12-6 9-4 4-9 5-11 5-5 1h-12l-9-1-10-4-8-6-7-7-7-12-3-12v-12l4-13 3-6 6-8 8-7 13-6z"/>
<path transform="translate(1203,966)" d="m0 0h25l8 3 9 5 12 12 7 14 1 6v12l-2 12-5 7-3 5-11 11-9 5-6 2-7 1h-12l-9-1-16-9-8-8-7-12-2-5-1-15 2-11 4-11 8-10 7-6 12-6zm8 21-10 4-7 7-5 13 1 7 4 10 8 8 7 3h12l9-4 7-6 4-7v-18l-6-9-5-4-10-4z"/>
<path transform="translate(818,966)" d="m0 0h25l10 4 10 9 6 5 6 10 3 10v20l-5 12-7 10-6 5-10 6-8 3-7 1h-11l-8-1-14-7-13-13-5-9-3-9v-18l5-13 6-8 10-10 9-5zm8 21-12 5-5 4-4 8-1 8v9l3 6 5 5 5 4 7 3h11l12-6 7-9 2-6v-9l-3-8-4-6-6-4-10-4z"/>
</svg>
