<?xml version="1.0" encoding="UTF-8"?>
<svg version="1.1" viewBox="0 0 2048 1391" width="1060" height="720" xmlns="http://www.w3.org/2000/svg">
<path transform="translate(103)" d="m0 0h1409l452 1 16 1 1 1 9 2 14 6 14 10 10 10 11 16 6 18 1 1 1 9 1 1v1240l-1 1-1 10-3 9-4 9-6 10-4 5-7 8-5 4-8 6-11 6-14 5h-6v2h-1908v-2l-9-1-10-4-15-8-11-9-8-10-7-11-5-12-3-11-1-9v-38l-1-66v-1130l1-1 2-13 4-13 7-13 9-12 8-8 15-10 14-6 7-1 1-1zm-21 38-12 2-14 7-11 11-7 14-3 11v1227l3 13 5 10 14 14 9 5 6 2h1902l12-4 13-10 7-9 5-11 2-8v-1232l-1-1-2-9-6-11-8-9-5-4-13-6-4-1-13-1z"/>
<path transform="translate(179,730)" d="m0 0h467l16 6 10 8 7 8 6 11 3 12v455l-3 9-3 8-7 9-7 7-14 8-6 2h-472l-8-3-6-3-10-9-7-7-5-8-3-8-2-14v-444l1-1 2-10 7-14 14-14 12-6zm3 31-9 5-4 6-3 7v444l3 8 5 7 7 4h462l9-6 5-8v-453l-6-8-5-4-3-2z"/>
<path transform="translate(1403,730)" d="m0 0h468l16 6 10 8 7 8 6 11 4 13 1 5v440l-3 16-7 14-12 12-14 8-6 2h-472l-13-5-14-11-7-10-5-12-1-8v-449l1-10 4-10 6-8 12-12 12-6zm4 31-10 6-3 5-3 7v445l4 9 4 5 6 4h463l9-6 5-7 2-13v-435l-6-12-7-6-3-2z"/>
<path transform="translate(1412,127)" d="m0 0h451l13 2 12 5 9 7 8 9 7 14 3 14v444l-3 14-7 13-8 10-14 8-7 3-8 1-70 1h-376l-23-2-10-4-10-7-5-4-3-5-5-8-4-9-1-9v-288l1-169 4-10 7-11 7-7 14-8 5-2zm-2 31-11 6-4 5-2 3-1 9v437l1 9 4 6 6 5 7 3h455l10-5 7-8 2-5v-446l-6-11-8-6-5-2z"/>
<path transform="translate(791,730)" d="m0 0h467l12 5 10 6 7 6 7 10 4 10 1 7 1 1v454l-4 13-5 9-3 3-3 5-13 9-7 3-6 2h-470l-8-3-10-5-13-13-5-8-3-9-1-7v-434l1-26 5-12 7-9 10-9 12-6zm4 31-9 6-5 6-2 7v443l3 9 3 5 9 5h462l8-6 3-4 2-5v-450l-5-9-5-4-6-3z"/>
<path transform="translate(799,127)" d="m0 0h450l15 3 10 4 11 8 10 14 5 14v459l-3 10-7 12-11 11-12 6-6 2-12 1-219 1h-195l-41-1-10-2-12-6-9-7-9-13-4-10-2-22v-134l1-293 1-18 4-10 7-10 7-7 14-8 5-2zm-2 31-9 5-6 7-2 5-1 10v436l3 9 6 7 10 4h454l12-6 5-9v-452l-5-9-3-3-11-4z"/>
<path transform="translate(186,127)" d="m0 0h453l12 2 14 7 9 7 7 9 5 11 2 6v461l-6 15-6 8-8 8-11 6-8 3-34 2h-429l-13-3-10-4-12-8-6-8-6-12-2-5-2-11v-263l1-183 2-10 4-9 6-10 7-7 14-8 11-3zm-2 31-9 5-6 7-3 8v433l2 16 4 6 6 5 7 3h454l10-4 7-8 3-9v-442l-6-12-8-6-5-2z" fill="#010101"/>
<path transform="translate(1e3 406)" d="m0 0h44l17 3 18 6 15 8 18 14 9 11 7 10 9 19 4 14 1 9 1 2v26l-6 9-9 4h-211l-8-4-4-6-2-5v-24l1-2 1-10 7-20 8-15 6-8 7-9 8-7 8-6 9-6 16-7 14-4z"/>
<path transform="translate(1614,406)" d="m0 0h46l21 4 18 7 11 7 9 7 8 6 6 8 5 6 8 13 6 14 3 14 1 1 1 9 1 2v19l-3 10-3 4-9 4h-212l-6-4-5-6-2-6v-15l1-13 3-15 5-13 7-13 8-11 18-18 18-11 20-7z"/>
<path transform="translate(389,406)" d="m0 0h44l22 4 15 6 15 8 9 7 16 16 11 18 5 11 5 20v34l-5 7-8 4h-212l-9-5-3-5v-39l5-17 6-14 10-14 7-9 8-7 10-8 19-10 18-5z"/>
<path transform="translate(1609,1008)" d="m0 0h53l16 3 15 5 15 8 12 9 15 15 11 18 5 11 3 9 2 8 2 16v16l-4 10-5 4-6 2h-214l-8-6-3-9v-16l2-20 5-17 9-17 12-16 9-9 13-9 16-8 7-3z"/>
<path transform="translate(386,1008)" d="m0 0h52l15 3 10 3 16 8 11 7 13 12 9 11 11 18 6 18 2 10v33l-3 6-6 4-3 1h-215l-5-3-5-5-1-4v-18l1-18 5-18 5-12 10-15 11-12 10-9 10-6 16-8 12-4z"/>
<path transform="translate(999,1008)" d="m0 0h49l17 3 16 6 15 8 9 7 17 17 9 14 7 16 4 14 2 13v22l-3 6-5 5-4 3h-217l-9-9-2-5v-24l1-1 1-10 6-20 8-15 8-11 8-10 9-7 10-7 18-9 18-5z"/>
<path transform="translate(399,251)" d="m0 0h27l14 5 13 7 10 9 7 8 9 16 2 6 1 8 1 1v19l-4 16-5 10-12 16-6 4-6 5-15 7-7 2-10 2h-10l-12-2-9-3-15-8-3-3-5-3-7-8-9-14-4-10-2-8v-24l5-16 6-11 7-8 11-11 10-6 10-4z"/>
<path transform="translate(403,852)" d="m0 0h19l9 2 15 7 8 5 8 6 7 9 6 8 6 15 1 9 1 1v17l-4 16-7 14-4 5-7 8-5 4-10 7-10 4-14 4h-20l-15-4-15-8-10-9-8-9-7-12-5-15v-27l6-16 5-9 4-5 7-8 9-7 10-6 11-4z"/>
<path transform="translate(1011,251)" d="m0 0h26l13 4 13 7 10 8 7 8 6 9 6 13 3 16v12l-4 16-4 10-8 12-11 11-14 8-13 5-12 2h-8l-16-3-13-5-14-9-9-10-7-11-6-13-2-7v-27l6-16 6-10 8-10 10-8 14-8 5-2z"/>
<path transform="translate(1628,852)" d="m0 0h19l20 6 11 7 5 4 7 6 4 6 7 10 5 12 2 11v17l-1 2-1 9-5 12-7 12-12 12-15 9-10 4-9 2h-21l-11-3-12-5-9-6-8-7-6-7-7-11-5-13-2-10v-17l3-13 4-10 7-10 7-9 10-8 10-6 11-4z"/>
<path transform="translate(1625,251)" d="m0 0h26l10 3 14 7 9 7 10 10 8 13 4 11 2 9v22l-1 1-2 9-4 10-6 9-6 8-8 7-10 6-10 5-7 2-11 2h-11l-18-4-14-7-10-9-9-9-8-14-4-11-1-9-1-1v-13l1-1 2-13 5-13 8-12 11-11 14-8 9-4z"/>
<path transform="translate(1016,852)" d="m0 0h17l1 1 9 1 14 6 11 8 10 9 9 13 6 16 2 12v10l-3 15-5 12-6 10-10 11-13 9-15 6-8 2h-21l-9-2-10-4-13-8-16-16-6-10-6-18v-25l6-16 6-11 7-9 9-8 13-8 11-4z"/>
</svg>
