<?xml version="1.0" encoding="UTF-8"?>
<svg version="1.1" viewBox="0 0 2048 1227" width="894" height="536" xmlns="http://www.w3.org/2000/svg">
<path transform="translate(54,7)" d="m0 0h1940l13 5 10 6 11 10 7 10 4 9 2 6v1121l-5 15-7 11-11 11-10 6-13 5-19 2h-1570l-342-1-13-2-13-5-9-6-7-6-8-11-5-10-2-7-1-12v-1092l1-19 4-11 5-9 9-11 10-7 13-6zm30 75v808h42l7-6 8-7 10-9 8-7 11-10 10-8 7-7 11-9 7-7 11-9 11-10 11-9 9-9 11-9 8-8 11-9 11-10 11-9 7-7 9-7 9-9 10-8 9-9 11-9 15-14 12-11 8-7 8-8 8-10 9-8 14-9 13-11 8-7 14-12 12-11 8-7 15-14 11-9 7-7 11-9 13-12 8-7 10-9 11-9 14-13 8-7 13-12 8-7 12-11 8-7 12-11 11-9 11-11 11-9 8-8 11-9 10-10 11-9 10-9 14-8 13-4h28l14 5 12 7 27 27 7 8 9 9 4 5 5 4 7 8 24 24 7 8 12 13 17 17 9 11 16 16 1 2h2l2 4 18 18 7 8 8 8 7 8 22 22 7 8 9 10 21 21 7 8 11 12 13 13 4-1 10-8 61-61 8-7 28-28 8-7 20-20 11-9 10-8 12-6 7-2 15-2 13 1 9 2 13 5 12 8 14 11 18 14 10 8 13 10 20 16 13 10 13 11 9 7 14 11 15 12 28 22 11 9 10 8 14 11 11 9 10 8 13 10 20 16 18 14 14 11 11 9 14 11 11 9 9 7 13 10 12 10 8 6 17 14 9 7 10 8 13 10 18 14 13 11 12 9 18 14 11 8h148v-808zm500 806v101h921v-101z"/>
<path transform="translate(1234,166)" d="m0 0h11l15 1 19 5 18 8 14 8 16 13 12 12 11 16 8 16 5 14 4 20 1 14-3 27-5 17-7 16-11 17-11 12-9 9-13 10-14 8-16 7-19 5-14 1h-18l-15-2-16-4-18-8-13-8-9-7-14-13-9-11-9-14-7-15-5-15-2-9-1-14v-14l1-16 6-22 6-14 11-18 14-16 13-11 14-9 16-8 16-5 10-2z"/>
</svg>
