<?xml version="1.0" encoding="UTF-8"?>
<svg version="1.1" viewBox="0 0 2048 1201" width="1016" height="596" xmlns="http://www.w3.org/2000/svg">
<path transform="translate(59)" d="m0 0h1930l7 2 13 5 16 11 8 9 7 10 6 15 2 7v1083l-3 9-5 13-7 11-11 11-15 9-10 4-6 2h-1935v-2h-6l-13-6-10-6-13-13-8-14-4-11-2-7v-1082l6-18 6-11 9-11 10-8 10-6 11-4zm32 78-8 1-5 5-1 3v1029l6 6h1882l4-4 2-4v-1027l-5-7-8-2z"/>
<path transform="translate(253,221)" d="m0 0 756 1 15 5 11 6 9 7 12 12 8 12 5 12 3 12v635l-5 16-6 12-8 11-11 11-15 9-14 5-8 2h-785l-16-5-14-7-9-7-11-11-9-15-6-15-2-8v-632l7-21 8-14 18-18 14-8 10-4 8-2zm-18 75-7 4v474l4-4 7-8 9-9 6-8 13-13 6-8 9-9 4-6 12-12 6-8 11-11 6-8 10-10 7-9 9-9 6-8 11-11 6-8 9-9 6-8 11-11 4-6 11-11 6-8 10-10 6-8 10-10 6-8 10-10 4-6 11-11 6-8 7-6 10-5 15-3 12 1 12 5 6 4 10 10 4 6 14 14 6 8 8 8 4 6 13 13 6 8 10 10 4 6 11 11 6 8 10 10 6 8 10 10 6 8 11 11 4 6 11 11 6 8 9 9 5 7 5-1 9-10 18-18 7-9 20-20 7-9 6-5 12-6 8-2h16l13 4 12 8 14 15 19 19 9 11 23 23 1 2h2l2 4 14 15 8 8 7 8 9 10 12 12 9 11 12 12 6 7h2v-471l-5-4-2-1z"/>
<path transform="translate(1209,294)" d="m0 0h644l14 7 8 8 6 12 2 7v11l-4 12-6 9-8 7-11 5-6 1h-637l-12-5-8-6-4-5-5-9-3-11 1-9 2-8 6-12 7-7z"/>
<path transform="translate(1213,677)" d="m0 0h637l9 3 11 7 5 6 4 6 4 14v9l-4 12-6 9-7 7-8 4-3 1-14 1h-627l-11-2-10-7-8-9-4-9-2-8v-7l3-11 5-9 5-7 12-7z"/>
<path transform="translate(1210,870)" d="m0 0h642l11 4 12 11 6 12 2 7v11l-6 15-7 9-10 6-4 2-8 1-23 1h-611l-1-1-7-1-9-5-11-11-5-10-2-8v-7l3-12 6-10 8-8 10-5z" fill="#010101"/>
<path transform="translate(1224,485)" d="m0 0 628 1 12 5 8 7 6 8 3 6 2 9v11l-5 12-4 6-8 8-7 4-5 2h-646l-13-7-8-8-6-12-2-8v-7l3-11 6-11 5-5 10-7 7-2z"/>
<path transform="translate(808,377)" d="m0 0h17l2 1 9 1 12 4 17 9 10 8 9 9 10 15 5 11 3 12 1 1 1 14 1 4-1 3-1 14-6 18-8 14-7 9-10 10-12 8-18 8-7 2-10 1-2 1h-12l-14-2-19-7-13-8-9-7-7-8-7-9-6-10-6-18-2-14v-12l1-2 1-11 6-18 10-16 9-10 8-7 16-10 10-4 8-2 10-1z"/>
</svg>
