<?xml version="1.0" encoding="UTF-8"?>
<svg version="1.1" viewBox="0 0 2048 1263" width="1232" height="760" xmlns="http://www.w3.org/2000/svg">
<path transform="translate(46)" d="m0 0h1955l13 5 11 7 11 11 8 15 3 14v1158l-2 12-5 12-8 11-10 8-10 6-10 3-1 1h-1954l-7-2-14-7-10-9-7-8-7-15-2-6v-1169l6-16 6-9 3-4h2v-2l10-8 10-5zm12 35-10 4-8 8-3 6-1 1151 2 10 4 6 5 4 10 4h1933l12-6 7-8 2-6v-1154l-4-8-8-7-6-3-5-1z"/>
<path transform="translate(1263,159)" d="m0 0h635l9 2 10 7 6 10 1 17-1 263-5 9-8 7-8 3-6 1h-630l-9-2-9-5-6-7-3-7-1-4v-270l5-12 4-5 8-5zm7 32v254h622v-254z"/>
<path transform="translate(889,861)" d="m0 0h666l10 4 8 7 5 8 1 4v232l-5 10-5 5-6 4-11 2h-665l-9-4-9-9-3-7-1-5v-225l2-8 6-10 9-6zm9 33v211h650v-211z"/>
<path transform="translate(886,168)" d="m0 0h293l8 4 7 6 4 6 2 7v614l-3 10-6 8-9 5-12 3h-277l-12-3-9-7-6-9-2-8v-612l4-10 9-10zm11 31-1 1v598h272l1-1v-578l-1-19-1-1z"/>
<path transform="translate(1632,512)" d="m0 0h271l10 5 8 9 2 5 1 77-1 510-6 10-6 5-6 3-5 1h-268l-9-5-8-8-4-13v-573l3-10 4-6 9-8zm11 31-1 1v561h250v-561l-1-1z"/>
<path transform="translate(1257,512)" d="m0 0h302l11 6 6 8 3 8v274l-6 12-7 6-6 3-10 2h-286l-11-3-6-4-7-8-3-7v-276l6-12 8-6zm12 31-1 1v253l1 1h278l1-1v-253l-1-1z"/>
<path transform="translate(183,859)" d="m0 0h312v88l-1 1h-310l-1-57z"/>
<path transform="translate(168,279)" d="m0 0h501l6 4 6 6 1 3v9l-3 7-6 6-8 2h-494l-9-4-4-4-3-7v-8l4-8z"/>
<path transform="translate(169,543)" d="m0 0h499l8 4 5 6 1 3v10l-3 6-6 5-6 2-12 1h-479l-11-2-7-6-3-6-1-5 4-11 6-5z" fill="#030303"/>
<path transform="translate(175,410)" d="m0 0h486l12 3 6 5 3 7v9l-4 8-8 5h-504l-9-8-3-10 3-9 7-7z"/>
<path transform="translate(168,675)" d="m0 0h501l7 4 5 6 1 4v8l-3 6-5 5-6 3h-500l-8-5-5-8-1-5 3-9 5-6z"/>
<path transform="translate(221,829)" d="m0 0h29v1h-29z" fill="#A6A6A6"/>
<path transform="translate(155,870)" d="m0 0h1v20h-1z" fill="#3F3F3F"/>
<path transform="translate(162,970)" d="m0 0h2l-1 2z" fill="#545454"/>
<path transform="translate(512,972)" d="m0 0" fill="#7F7F7F"/>
<path transform="translate(522,958)" d="m0 0" fill="#7F7F7F"/>
<path transform="translate(155,955)" d="m0 0"/>
<path transform="translate(155,851)" d="m0 0" fill="#FEFEFE"/>
<path transform="translate(522,848)" d="m0 0 2 1z"/>
<path transform="translate(160,839)" d="m0 0" fill="#FEFEFE"/>
<path transform="translate(165,834)" d="m0 0" fill="#7F7F7F"/>
<path transform="translate(171,831)" d="m0 0 2 1z" fill="#FEFEFE"/>
<path transform="translate(506,976)" d="m0 0" fill="#FEFEFE"/>
<path transform="translate(168,974)" d="m0 0"/>
<path transform="translate(160,968)" d="m0 0"/>
<path transform="translate(519,966)" d="m0 0"/>
<path transform="translate(519,841)" d="m0 0" fill="#FEFEFE"/>
</svg>
