<?xml version="1.0" encoding="UTF-8"?>
<svg version="1.1" viewBox="0 0 2048 937" width="1324" height="606" xmlns="http://www.w3.org/2000/svg">
<path transform="translate(57)" d="m0 0h1934l16 5 12 7 12 11 6 8 6 12 4 13 1 5v816l-5 17-7 13-6 8h-2v2l-13 10-12 6-14 4h-1929l-15-4-14-7-12-11-8-9-7-15-4-14v-816l4-16 8-16 12-13 13-9 13-5zm8 35-13 4-11 10-4 7-1 4-1 807 2 13 7 11 5 4 9 5 5 1h1922l9-3 8-5 6-7 3-5 1-4 1-48v-726l-1-43-3-7-6-8-9-7-11-3z"/>
<path transform="translate(951,479)" d="m0 0h896l8 5 4 5 2 5-1 7-4 8-8 5-2 1h-894l-10-5-5-9v-8l4-8 5-4z"/>
<path transform="translate(952,289)" d="m0 0h894l8 4 4 5 3 9-3 9-7 7-6 2h-894l-8-4-4-5-2-4v-9l5-9 4-3z"/>
<path transform="translate(948,385)" d="m0 0h902l8 7 3 9-2 9-5 6-6 3h-900l-9-8-2-4v-9l3-6z"/>
<path transform="translate(181,215)" d="m0 0h476l9 4 5 4 5 9v18l-5 8-7 6-4 2h-483l-9-6-4-5-2-5-1-12 2-8 5-8 9-6z"/>
<path transform="translate(177,513)" d="m0 0h388l9 4 4 5 2 4v10l-5 8-4 3-6 2h-389l-8-4-4-5-2-4v-8l5-10z"/>
<path transform="translate(176,608)" d="m0 0h390l5 2 6 5 3 6v9l-4 8-8 5h-394l-5-3-6-7-1-3v-8l4-8 7-5z"/>
<path transform="translate(175,419)" d="m0 0h392l8 5 5 8v10l-5 8-8 4h-392l-7-4-4-5-2-4v-8l5-9z"/>
<path transform="translate(1190,640)" d="m0 0h368l8 3 7 7 2 6v6l-5 9-6 4-4 1h-388l-8-5-4-5-1-10 3-8 7-6 5-1z"/>
<path transform="translate(998,705)" d="m0 0h42l18 5 15 8 10 9 7 8 7 14 3 10v16l-4 5-4 2h-147l-6-4-2-3v-13l3-12 8-15 7-9 10-8 11-6 10-4z"/>
<path transform="translate(1177,717)" d="m0 0h238l7 3 7 8 2 9-4 9-6 5-4 2h-245l-6-4-6-6-1-10 3-8 6-5z"/>
<path transform="translate(1008,592)" d="m0 0h23l9 4 8 5 8 6 7 11 4 10 1 7 1 1v7l-3 13-6 11-7 9-14 9-9 3h-22l-16-7-10-9-7-10-4-11-1-7v-8l2-9 4-10 6-9 7-7 16-8z"/>
<path transform="translate(984,114)" d="m0 0h5l6 5 1 2v12l-8 5-10 6-7 8-4 10h10l12 6 7 7 3 6v20l-3 6-4 6-7 5-9 3h-15l-8-3-10-9-4-7-2-6v-28l5-17 6-11 7-9 7-6 13-8z"/>
<path transform="translate(1066,114)" d="m0 0h5l7 8v9l-3 5-16 8-5 5-5 13h9l11 4 8 8 4 8v19l-6 10-4 4-7 4-6 2h-14l-10-4-9-8-4-8-2-6v-28l5-16 5-10 7-9 9-8 15-8z"/>
</svg>
